<!-- Generated by IcoMoon.io -->
<svg version="1.1" xmlns="http://www.w3.org/2000/svg" width="32" height="32" viewBox="0 0 32 32">
<title>uniF1BD</title>
<path d="M16 0q4.347 0 8.027 2.147t5.827 5.827 2.147 8.027-2.147 8.027-5.827 5.827-8.027 2.147-8.027-2.147-5.827-5.827-2.147-8.027 2.147-8.027 5.827-5.827 8.027-2.147zM10.24 6.347q-0.293 0.027-0.613 0.293l-2.72 2.72q-0.533 0.48-0.56 1.467-0.053 1.6 1.333 4.533 2.267 4.293 7.28 7.947 3.493 2.267 6.24 2.347 0.933 0 1.467-0.56l2.72-2.693q0.32-0.32 0.253-0.773t-0.493-0.72l-3.947-2.32h-0.027q-0.64-0.4-1.387 0.187l-1.173 1.2q-0.16 0.133-0.533 0.053-0.267-0.080-0.52-0.173t-0.48-0.227-0.48-0.307-0.453-0.333-0.427-0.373-0.4-0.373-0.413-0.387-0.4-0.36q-2.080-1.92-2.56-3.813 0-0.133 0.107-0.267l0.987-1.013q0.613-0.613 0.24-1.36l-2.187-4.16q-0.347-0.56-0.853-0.533z"></path>
</svg>
